<?xml version="1.0" encoding="UTF-8"?>
<svg version="1.1" xmlns="http://www.w3.org/2000/svg" width="348" height="134">
<path d="M0 0 C1.9375 1.5 1.9375 1.5 3 4 C2.87117185 5.39750541 2.72308994 6.79328735 2.5625 8.1875 C2.47239019 11.42085194 2.76122393 12.68054902 4.72265625 15.3046875 C21.22390194 30.81317532 47.39260484 41.11776019 70 42 C71.15371094 42.0515625 72.30742187 42.103125 73.49609375 42.15625 C99.57329029 42.93957349 125.69811473 34.44166765 146 18 C146.5878125 17.57203125 147.175625 17.1440625 147.78125 16.703125 C149.41950939 15.47934241 149.41950939 15.47934241 151 13 C151.12251481 10.69756659 150.99807728 8.4651579 150.87109375 6.1640625 C151 4 151 4 153.0625 0.875 C156 -1 156 -1 159.5625 -1.125 C163.73234666 0.23967709 164.97424883 1.11055776 167 5 C166.814375 6.9490625 166.814375 6.9490625 166.625 8.9375 C166.19746622 18.46991978 176.6257228 27.80580304 182.6875 34.4375 C184.44099503 36.30807208 186.21269691 38.16170395 188 40 C188.53206055 40.56050049 189.06412109 41.12100098 189.61230469 41.69848633 C193.71432178 45.93905375 198.02722373 49.45976313 202.875 52.8125 C203.60678467 53.32240479 204.33856934 53.83230957 205.0925293 54.35766602 C215.74946562 61.68494984 226.59598782 68.62959362 238.875 72.8671875 C241 74 241 74 241.90234375 75.9609375 C242.04547053 78.94942463 240.66569052 80.60140564 239 83 C233.72248295 82.42331767 228.7717399 81.54162129 223.625 80.1875 C217.62257595 78.64340594 211.60819503 77.1780041 205.5625 75.8125 C204.48186279 75.56246216 204.48186279 75.56246216 203.37939453 75.30737305 C198.26875011 74.16443431 193.21262423 73.50842345 188 73 C188 72.34 188 71.68 188 71 C186.83855469 71.02964844 185.67710937 71.05929688 184.48046875 71.08984375 C180.28413444 71.08892128 176.42478683 70.43152725 172.3125 69.5625 C166.13733418 68.31254853 160.08639132 67.57034065 153.7890625 67.1796875 C145.26045016 66.63022508 145.26045016 66.63022508 142 65 C140.19601163 64.78925113 138.38572439 64.63128764 136.57421875 64.5 C135.46626953 64.4175 134.35832031 64.335 133.21679688 64.25 C132.05212891 64.1675 130.88746094 64.085 129.6875 64 C127.42057292 63.83333333 125.15364583 63.66666667 122.88671875 63.5 C121.72906006 63.41862793 120.57140137 63.33725586 119.37866211 63.25341797 C117.29698622 63.097281 115.21646011 62.92311026 113.13891602 62.71923828 C102.44552394 61.71074993 91.73014475 61.84967214 80.9987793 61.86962891 C77.57401084 61.87498201 74.14937381 61.86966204 70.72460938 61.86328125 C59.75936614 61.85924295 48.92432826 62.01062687 38 63 C35.93437254 63.15676479 33.86822457 63.30515742 31.80198669 63.4536438 C13.68140043 64.76826496 -4.14061602 66.56584118 -22 70 C-24.33187668 70.43312469 -26.66391515 70.865379 -28.99609375 71.296875 C-42.09973714 73.70894809 -42.09973714 73.70894809 -55 77 C-58.76326861 77.89096748 -62.54718931 78.68798697 -66.328125 79.5 C-69.87258148 80.27158236 -73.37070677 81.07966247 -76.84765625 82.1171875 C-80.05131179 83.01436985 -82.69174323 83.16137838 -86 83 C-87.25664978 80.09399739 -88 78.20395416 -88 75 C-86.95827637 74.51756836 -86.95827637 74.51756836 -85.89550781 74.02539062 C-66.51437504 65.10213616 -66.51437504 65.10213616 -48.83203125 53.28515625 C-47 52 -47 52 -45 52 C-45 51.34 -45 50.68 -45 50 C-43.42578125 48.66796875 -43.42578125 48.66796875 -41.3125 47.1875 C-30.72960411 39.75356371 -21.95259139 28.80694577 -15 18 C-14.43925781 17.18402344 -13.87851563 16.36804688 -13.30078125 15.52734375 C-11.81099656 12.63277711 -11.81842862 11.13672072 -12.125 7.9375 C-12.25557476 3.33302166 -12.25557476 3.33302166 -9.9375 0.3125 C-6.09238485 -1.40553017 -4.01276815 -1.18896834 0 0 Z M-5 17 C-5 30.86 -5 44.72 -5 59 C-4.67 59 -4.34 59 -4 59 C-4 45.14 -4 31.28 -4 17 C-4.33 17 -4.66 17 -5 17 Z M158 17 C158 30.86 158 44.72 158 59 C158.33 59 158.66 59 159 59 C159 45.14 159 31.28 159 17 C158.67 17 158.34 17 158 17 Z M3 25 C3 35.56 3 46.12 3 57 C4.32 57 5.64 57 7 57 C7 47.1 7 37.2 7 27 C5.68 26.34 4.36 25.68 3 25 Z M148.45581055 26.08520508 C146.30909863 28.90872705 146.66104906 31.12674479 146.70703125 34.63671875 C146.71669922 35.93544922 146.72636719 37.23417969 146.73632812 38.57226562 C146.76139415 39.94401639 146.78678899 41.31576118 146.8125 42.6875 C146.8275498 44.07094924 146.8412377 45.45441401 146.85351562 46.83789062 C146.88892777 50.22565207 146.93831946 53.61263139 147 57 C148.32 57 149.64 57 151 57 C151 46.44 151 35.88 151 25 C149.82179837 24.9041699 149.82179837 24.9041699 148.45581055 26.08520508 Z M166 27 C165.8860109 38.05694276 166.08949317 48.97636372 167 60 C167.66 60 168.32 60 169 60 C169.07419134 55.78250781 169.1286204 51.56536189 169.16479492 47.34741211 C169.17987589 45.91277448 169.2003438 44.47818292 169.22631836 43.04370117 C169.26273437 40.98084141 169.27973243 38.91859142 169.29296875 36.85546875 C169.3086792 35.61434326 169.32438965 34.37321777 169.34057617 33.09448242 C169.27621502 30.00105573 169.27621502 30.00105573 167.48168945 28.0715332 C166.99273193 27.71792725 166.50377441 27.36432129 166 27 Z M-13 29 C-15.39112209 32.58668313 -15.23381027 34.16396569 -15.1953125 38.41796875 C-15.18886719 39.67158203 -15.18242188 40.92519531 -15.17578125 42.21679688 C-15.15902344 43.52712891 -15.14226562 44.83746094 -15.125 46.1875 C-15.11496639 47.52277987 -15.1058412 48.85806689 -15.09765625 50.19335938 C-15.07405292 53.46242015 -15.04112594 56.73112028 -15 60 C-14.34 60 -13.68 60 -13 60 C-11.56490779 57.12981559 -11.88841494 54.66456277 -11.90234375 51.4609375 C-11.90556641 50.15898438 -11.90878906 48.85703125 -11.91210938 47.515625 C-11.92046534 46.13541601 -11.92893029 44.75520768 -11.9375 43.375 C-11.94251499 41.98698074 -11.9470779 40.59895978 -11.95117188 39.2109375 C-11.96299024 35.80724868 -11.97946566 32.40364561 -12 29 C-12.33 29 -12.66 29 -13 29 Z M13 32 C13 39.92 13 47.84 13 56 C15.64 56 18.28 56 21 56 C21 49.4 21 42.8 21 36 C20.01 36 19.02 36 18 36 C18 35.34 18 34.68 18 34 C15.525 33.01 15.525 33.01 13 32 Z M134.55419922 35.27099609 C132.0646061 38.0406 132.28822671 40.59383681 132.38476562 44.19335938 C132.44341797 45.05767578 132.50207031 45.92199219 132.5625 46.8125 C132.59408203 47.69615234 132.62566406 48.57980469 132.65820312 49.49023438 C132.74036258 51.6615914 132.86591511 53.83123013 133 56 C135.64 56 138.28 56 141 56 C141 48.08 141 40.16 141 32 C138.57941658 32 136.42923707 33.91251608 134.55419922 35.27099609 Z M-27.4765625 44.4453125 C-30.56169625 49.61884448 -29.47182679 56.18080296 -29 62 C-25.04 61.505 -25.04 61.505 -21 61 C-21 54.07 -21 47.14 -21 40 C-23.5886463 40 -25.76878493 42.76541701 -27.4765625 44.4453125 Z M27 40 C27 44.95 27 49.9 27 55 C29.64 55 32.28 55 35 55 C35 51.04 35 47.08 35 43 C31.19572508 40.7986134 31.19572508 40.7986134 27 40 Z M176 40 C175.97112186 43.47914941 175.95324313 46.95826831 175.9375 50.4375 C175.92912109 51.43072266 175.92074219 52.42394531 175.91210938 53.44726562 C175.90888672 54.39150391 175.90566406 55.33574219 175.90234375 56.30859375 C175.89710693 57.18314209 175.89187012 58.05769043 175.88647461 58.95874023 C175.77215191 60.99440206 175.77215191 60.99440206 177 62 C178.99958364 62.04080783 181.00045254 62.04254356 183 62 C183.19043729 59.45479053 183.32813248 56.92393276 183.4375 54.375 C183.49615234 53.66214844 183.55480469 52.94929688 183.61523438 52.21484375 C183.72497016 48.79735795 183.68847575 46.80671168 181.41064453 44.13769531 C179.66514518 42.64155302 177.90758807 41.28114709 176 40 Z M119 43 C119 46.96 119 50.92 119 55 C121.64 55 124.28 55 127 55 C127 50.05 127 45.1 127 40 C124.39060143 40 121.3598011 41.97026861 119 43 Z M42 45 C42 47.97 42 50.94 42 54 C44.64 54 47.28 54 50 54 C50 51.69 50 49.38 50 47 C47.36 46.34 44.72 45.68 42 45 Z M103 48 C103 49.98 103 51.96 103 54 C106.3 54 109.6 54 113 54 C113 51.36 113 48.72 113 46 C109.09567131 46 106.61973402 46.68373308 103 48 Z M56 48 C56 49.98 56 51.96 56 54 C60.455 53.505 60.455 53.505 65 53 C65 52.01 65 51.02 65 50 C60.545 49.01 60.545 49.01 56 48 Z M72 50 C72 50.99 72 51.98 72 53 C75.3 53 78.6 53 82 53 C81.67 52.01 81.34 51.02 81 50 C78.03 50 75.06 50 72 50 Z M88 50 C88 50.99 88 51.98 88 53 C90.97 53.33 93.94 53.66 97 54 C97 52.35 97 50.7 97 49 C93.72724974 49 91.153368 49.29925156 88 50 Z M190 54 C190 57.3 190 60.6 190 64 C192.31 64.33 194.62 64.66 197 65 C197.5863982 62.21276343 197.5863982 62.21276343 197 59 C194.83258615 56.89777153 192.60812627 55.58350524 190 54 Z M-41.4765625 58.33203125 C-43.2702256 59.9856655 -43.2702256 59.9856655 -43.4375 62.875 C-43.293125 63.57625 -43.14875 64.2775 -43 65 C-38.65815798 64.81535634 -38.65815798 64.81535634 -35 63 C-34.92820036 61.48071962 -34.91607993 59.95832518 -34.9375 58.4375 C-34.94652344 57.61121094 -34.95554687 56.78492188 -34.96484375 55.93359375 C-34.97644531 55.29550781 -34.98804688 54.65742187 -35 54 C-37.41054923 54 -39.74299988 56.84258255 -41.4765625 58.33203125 Z M204 64 C204 64.99 204 65.98 204 67 C205.32 66.67 206.64 66.34 208 66 C206.68 65.34 205.36 64.68 204 64 Z " fill="#3E96D1" transform="translate(97,9)"/>
<path d="M0 0 C1.9375 1.5 1.9375 1.5 3 4 C2.87117185 5.39750541 2.72308994 6.79328735 2.5625 8.1875 C2.47239019 11.42085194 2.76122393 12.68054902 4.72265625 15.3046875 C21.22390194 30.81317532 47.39260484 41.11776019 70 42 C71.15371094 42.0515625 72.30742187 42.103125 73.49609375 42.15625 C94.29514772 42.78102527 113.60513832 37.25740587 131.8671875 27.57421875 C135 26 135 26 137 26 C136.67 27.98 136.34 29.96 136 32 C136.99 32.66 137.98 33.32 139 34 C138.19175781 34.29519531 137.38351563 34.59039062 136.55078125 34.89453125 C133.86471201 36.68700891 133.86471201 36.68700891 133.49365234 39.02880859 C133.28128854 41.59009175 133.20442015 44.11751711 133.1875 46.6875 C133.16236328 47.58017578 133.13722656 48.47285156 133.11132812 49.39257812 C133.05242662 51.59549439 133.01617246 53.79642319 133 56 C135.64 56 138.28 56 141 56 C141 48.08 141 40.16 141 32 C141.33 32 141.66 32 142 32 C142 40.25 142 48.5 142 57 C138.7 57 135.4 57 132 57 C131.93941406 56.21753906 131.87882813 55.43507812 131.81640625 54.62890625 C131.73261719 53.61699219 131.64882812 52.60507812 131.5625 51.5625 C131.48128906 50.55316406 131.40007812 49.54382812 131.31640625 48.50390625 C131.26788532 46.06359221 131.26788532 46.06359221 130 45 C129.67 48.63 129.34 52.26 129 56 C125.04 56 121.08 56 117 56 C117 51.71 117 47.42 117 43 C118.32 42.67 119.64 42.34 121 42 C120.835 41.360625 120.67 40.72125 120.5 40.0625 C120 38 120 38 120 37 C117.36 37.66 114.72 38.32 112 39 C112 39.66 112 40.32 112 41 C111.01 41.495 111.01 41.495 110 42 C109.67 42.99 109.34 43.98 109 45 C111.475 44.505 111.475 44.505 114 44 C114 47.63 114 51.26 114 55 C112.10424749 55.02721176 110.20838021 55.04649136 108.3125 55.0625 C106.72888672 55.07990234 106.72888672 55.07990234 105.11328125 55.09765625 C102.27589738 55.00865425 99.7561081 54.64939838 97 54 C97 52.35 97 50.7 97 49 C92.545 49.495 92.545 49.495 88 50 C88 50.99 88 51.98 88 53 C90.64 53 93.28 53 96 53 C96 53.33 96 53.66 96 54 C87 54 78 54 69 54 C68.67 54.33 68.34 54.66 68 55 C65.87615672 55.0731351 63.74999728 55.08360924 61.625 55.0625 C60.46226562 55.05347656 59.29953125 55.04445312 58.1015625 55.03515625 C57.07804687 55.02355469 56.05453125 55.01195312 55 55 C54.01 55 53.02 55 52 55 C51.67 55.33 51.34 55.66 51 56 C49.14712498 56.07226502 47.29166122 56.0838122 45.4375 56.0625 C44.42558594 56.05347656 43.41367188 56.04445312 42.37109375 56.03515625 C41.58863281 56.02355469 40.80617188 56.01195312 40 56 C39.93941406 55.28972656 39.87882812 54.57945313 39.81640625 53.84765625 C39.69072266 52.46900391 39.69072266 52.46900391 39.5625 51.0625 C39.48128906 50.14597656 39.40007812 49.22945312 39.31640625 48.28515625 C39.23955024 46.03840268 39.23955024 46.03840268 38 45 C37.93941406 45.71027344 37.87882812 46.42054687 37.81640625 47.15234375 C37.69072266 48.53099609 37.69072266 48.53099609 37.5625 49.9375 C37.44068359 51.31228516 37.44068359 51.31228516 37.31640625 52.71484375 C37 55 37 55 36 56 C32.66381769 56.14257189 29.34024394 56.04228157 26 56 C25.505 47.09 25.505 47.09 25 38 C24.34 37.67 23.68 37.34 23 37 C22.67 43.6 22.34 50.2 22 57 C17.05 57.495 17.05 57.495 12 58 C11.97494385 57.18732666 11.9498877 56.37465332 11.92407227 55.53735352 C11.80850882 51.87889248 11.68560416 48.22071472 11.5625 44.5625 C11.52318359 43.28310547 11.48386719 42.00371094 11.44335938 40.68554688 C11.40146484 39.47060547 11.35957031 38.25566406 11.31640625 37.00390625 C11.27974854 35.87799072 11.24309082 34.7520752 11.20532227 33.59204102 C11.28781955 31.07146559 11.28781955 31.07146559 10 30 C9.67 39.24 9.34 48.48 9 58 C6.36 58 3.72 58 1 58 C0.67 48.1 0.34 38.2 0 28 C-0.33 30.31 -0.66 32.62 -1 35 C-1.33 35.33 -1.66 35.66 -2 36 C-2.15764405 37.77869726 -2.25100677 39.56318476 -2.31640625 41.34765625 C-2.37924805 42.96704102 -2.37924805 42.96704102 -2.44335938 44.61914062 C-2.48267578 45.75544922 -2.52199219 46.89175781 -2.5625 48.0625 C-2.62727539 49.77276367 -2.62727539 49.77276367 -2.69335938 51.51757812 C-2.79982839 54.34492195 -2.90184207 57.17235738 -3 60 C-3.99 60 -4.98 60 -6 60 C-6.59950448 47.66232525 -7.19272088 35.35554993 -7 23 C-7.99 23.66 -8.98 24.32 -10 25 C-10.32560662 27.6768071 -10.46496289 30.13436428 -10.4765625 32.81640625 C-10.49993179 33.97389626 -10.49993179 33.97389626 -10.52377319 35.1547699 C-10.57138543 37.62400288 -10.5990881 40.09295185 -10.625 42.5625 C-10.66144049 45.03541909 -10.70201428 47.50817539 -10.74765015 49.98094177 C-10.77496013 51.52109795 -10.79627496 53.06137373 -10.81118774 54.60169983 C-10.88935403 59.88935403 -10.88935403 59.88935403 -12 61 C-13.65 61 -15.3 61 -17 61 C-17.33 53.74 -17.66 46.48 -18 39 C-19.20194812 41.40389624 -19.18703898 43.07014503 -19.28125 45.75390625 C-19.31863281 46.69041016 -19.35601562 47.62691406 -19.39453125 48.59179688 C-19.46498226 50.57616696 -19.53529422 52.56054199 -19.60546875 54.54492188 C-19.64285156 55.48013672 -19.68023437 56.41535156 -19.71875 57.37890625 C-19.74904297 58.2407251 -19.77933594 59.10254395 -19.81054688 59.99047852 C-20 62 -20 62 -21 63 C-22.68608966 63.07205511 -24.37500659 63.08386068 -26.0625 63.0625 C-27.44115234 63.04896484 -27.44115234 63.04896484 -28.84765625 63.03515625 C-29.91306641 63.01775391 -29.91306641 63.01775391 -31 63 C-31.33 61.68 -31.66 60.36 -32 59 C-32.99 61.475 -32.99 61.475 -34 64 C-34.66 63.67 -35.32 63.34 -36 63 C-36 60.36 -36 57.72 -36 55 C-36.99 55.7425 -37.98 56.485 -39 57.25 C-39.556875 57.66765625 -40.11375 58.0853125 -40.6875 58.515625 C-42.44160248 60.1691947 -42.44160248 60.1691947 -42 64 C-40.68 64.33 -39.36 64.66 -38 65 C-40.97 65.495 -40.97 65.495 -44 66 C-44.99 63.03 -44.99 63.03 -46 60 C-46.33 62.31 -46.66 64.62 -47 67 C-51.95 67.99 -51.95 67.99 -57 69 C-55.35 67.02 -53.7 65.04 -52 63 C-52.66 62.67 -53.32 62.34 -54 62 C-54 61.67 -54 61.34 -54 61 C-54.66 61.66 -55.32 62.32 -56 63 C-58.32275177 63.40047444 -60.65739357 63.7397104 -63 64 C-60.21218907 60.91242446 -56.84062885 58.65987271 -53.4375 56.3125 C-52.84775391 55.89677734 -52.25800781 55.48105469 -51.65039062 55.05273438 C-47.24422722 52 -47.24422722 52 -45 52 C-45 51.34 -45 50.68 -45 50 C-43.42578125 48.66796875 -43.42578125 48.66796875 -41.3125 47.1875 C-30.72960411 39.75356371 -21.95259139 28.80694577 -15 18 C-14.43925781 17.18402344 -13.87851563 16.36804688 -13.30078125 15.52734375 C-11.81099656 12.63277711 -11.81842862 11.13672072 -12.125 7.9375 C-12.25557476 3.33302166 -12.25557476 3.33302166 -9.9375 0.3125 C-6.09238485 -1.40553017 -4.01276815 -1.18896834 0 0 Z M-5 17 C-5 30.86 -5 44.72 -5 59 C-4.67 59 -4.34 59 -4 59 C-4 45.14 -4 31.28 -4 17 C-4.33 17 -4.66 17 -5 17 Z M3 25 C3 35.56 3 46.12 3 57 C4.32 57 5.64 57 7 57 C7 47.1 7 37.2 7 27 C5.68 26.34 4.36 25.68 3 25 Z M-13 29 C-15.39112209 32.58668313 -15.23381027 34.16396569 -15.1953125 38.41796875 C-15.18886719 39.67158203 -15.18242188 40.92519531 -15.17578125 42.21679688 C-15.15902344 43.52712891 -15.14226562 44.83746094 -15.125 46.1875 C-15.11496639 47.52277987 -15.1058412 48.85806689 -15.09765625 50.19335938 C-15.07405292 53.46242015 -15.04112594 56.73112028 -15 60 C-14.34 60 -13.68 60 -13 60 C-11.56490779 57.12981559 -11.88841494 54.66456277 -11.90234375 51.4609375 C-11.90556641 50.15898438 -11.90878906 48.85703125 -11.91210938 47.515625 C-11.92046534 46.13541601 -11.92893029 44.75520768 -11.9375 43.375 C-11.94251499 41.98698074 -11.9470779 40.59895978 -11.95117188 39.2109375 C-11.96299024 35.80724868 -11.97946566 32.40364561 -12 29 C-12.33 29 -12.66 29 -13 29 Z M13 32 C13 39.92 13 47.84 13 56 C15.64 56 18.28 56 21 56 C21 49.4 21 42.8 21 36 C20.01 36 19.02 36 18 36 C18 35.34 18 34.68 18 34 C15.525 33.01 15.525 33.01 13 32 Z M-27.4765625 44.4453125 C-30.56169625 49.61884448 -29.47182679 56.18080296 -29 62 C-25.04 61.505 -25.04 61.505 -21 61 C-21 54.07 -21 47.14 -21 40 C-23.5886463 40 -25.76878493 42.76541701 -27.4765625 44.4453125 Z M27 40 C27 44.95 27 49.9 27 55 C29.64 55 32.28 55 35 55 C35 51.04 35 47.08 35 43 C31.19572508 40.7986134 31.19572508 40.7986134 27 40 Z M119 43 C119 46.96 119 50.92 119 55 C121.64 55 124.28 55 127 55 C127 50.05 127 45.1 127 40 C124.39060143 40 121.3598011 41.97026861 119 43 Z M42 45 C42 47.97 42 50.94 42 54 C44.64 54 47.28 54 50 54 C50 51.69 50 49.38 50 47 C47.36 46.34 44.72 45.68 42 45 Z M103 48 C103 49.98 103 51.96 103 54 C106.3 54 109.6 54 113 54 C113 51.36 113 48.72 113 46 C109.09567131 46 106.61973402 46.68373308 103 48 Z M56 48 C56 49.98 56 51.96 56 54 C60.455 53.505 60.455 53.505 65 53 C65 52.01 65 51.02 65 50 C60.545 49.01 60.545 49.01 56 48 Z M72 50 C72 50.99 72 51.98 72 53 C75.3 53 78.6 53 82 53 C81.67 52.01 81.34 51.02 81 50 C78.03 50 75.06 50 72 50 Z " fill="#61A9DA" transform="translate(97,9)"/>
<path d="M0 0 C1.90758087 0.00140488 1.90758087 0.00140488 3.85369873 0.00283813 C22.42070386 0.03249695 40.83672203 0.1840731 59.3125 2.1875 C60.01735535 2.26291016 60.72221069 2.33832031 61.44842529 2.41601562 C95.01937409 6.03308755 130.16299961 10.47099987 162.3125 21.1875 C161.9825 23.8275 161.6525 26.4675 161.3125 29.1875 C159.6625 29.5175 158.0125 29.8475 156.3125 30.1875 C156.3125 29.5275 156.3125 28.8675 156.3125 28.1875 C155.405 28.084375 154.4975 27.98125 153.5625 27.875 C150.34725883 27.41658938 147.26671774 26.69496605 144.125 25.875 C137.70649386 24.22199277 131.23603172 22.94278734 124.73413086 21.67089844 C120.02631574 20.74517711 115.35180669 19.75412874 110.6875 18.625 C105.46568948 17.39395141 100.22375006 16.40497429 94.9375 15.5 C93.81287354 15.30265259 93.81287354 15.30265259 92.66552734 15.10131836 C88.14945731 14.35233373 83.88984662 14.06068697 79.3125 14.1875 C79.3125 13.5275 79.3125 12.8675 79.3125 12.1875 C78.02472656 12.19910156 76.73695313 12.21070312 75.41015625 12.22265625 C73.73177228 12.2320327 72.05338674 12.24113305 70.375 12.25 C69.09979492 12.26256836 69.09979492 12.26256836 67.79882812 12.27539062 C66.98994141 12.27861328 66.18105469 12.28183594 65.34765625 12.28515625 C64.5987915 12.29039307 63.84992676 12.29562988 63.07836914 12.30102539 C61.3125 12.1875 61.3125 12.1875 60.3125 11.1875 C40.89994537 8.27262289 20.6817691 8.99385706 1.125 9 C-0.1143631 8.99918427 -1.3537262 8.99836853 -2.63064575 8.99752808 C-6.226477 8.99779545 -9.82216218 9.00669145 -13.41796875 9.01953125 C-15.02764023 9.02132889 -15.02764023 9.02132889 -16.66983032 9.02316284 C-22.58662388 9.05951643 -28.40051914 9.34953899 -34.28535461 9.97465515 C-36.56249635 10.17642391 -38.77809726 10.22420677 -41.0625 10.1875 C-48.04014503 10.09965195 -55.04974217 10.66098242 -61.953125 11.66015625 C-67.44449625 12.4356114 -72.95969522 12.92018008 -78.48046875 13.4375 C-83.84929032 13.95575729 -88.91196846 14.70326413 -94.125 16.125 C-97.65066528 17.02267861 -101.14210823 17.5392331 -104.75 18 C-119.25468634 19.98074749 -133.5298394 23.50491091 -147.625 27.40625 C-151.32545442 28.35024348 -154.88610154 28.87718176 -158.6875 29.1875 C-159.28482819 26.42485711 -159.6875 24.02717231 -159.6875 21.1875 C-149.33830586 18.08099132 -138.93577716 15.52372523 -128.375 13.25 C-127.57680847 13.07763824 -126.77861694 12.90527649 -125.95623779 12.72769165 C-99.10617018 6.96679706 -72.06345606 3.2950242 -44.6875 1.1875 C-43.46313232 1.09106201 -42.23876465 0.99462402 -40.97729492 0.89526367 C-27.33036267 -0.04825076 -13.67415592 -0.012982 0 0 Z " fill="#479AD2" transform="translate(172.6875,75.8125)"/>
<path d="M0 0 C4.16984666 1.36467709 5.41174883 2.23555776 7.4375 6.125 C7.31375 7.424375 7.19 8.72375 7.0625 10.0625 C6.63496622 19.59491978 17.0632228 28.93080304 23.125 35.5625 C24.87849503 37.43307208 26.65019691 39.28670395 28.4375 41.125 C28.96956055 41.68550049 29.50162109 42.24600098 30.04980469 42.82348633 C34.15182178 47.06405375 38.46472373 50.58476313 43.3125 53.9375 C44.04428467 54.44740479 44.77606934 54.95730957 45.5300293 55.48266602 C56.18696562 62.80994984 67.03348782 69.75459362 79.3125 73.9921875 C81.4375 75.125 81.4375 75.125 82.33984375 77.0859375 C82.48297053 80.07442463 81.10319052 81.72640564 79.4375 84.125 C74.15998295 83.54831767 69.2092399 82.66662129 64.0625 81.3125 C58.06007595 79.76840594 52.04569503 78.3030041 46 76.9375 C45.2795752 76.77080811 44.55915039 76.60411621 43.81689453 76.43237305 C38.70625011 75.28943431 33.65012423 74.63342345 28.4375 74.125 C28.4375 73.465 28.4375 72.805 28.4375 72.125 C27.2928125 72.1559375 26.148125 72.186875 24.96875 72.21875 C20.48909621 72.21875 16.31358689 71.52452897 11.9375 70.625 C11.21046875 70.48191406 10.4834375 70.33882813 9.734375 70.19140625 C7.96740929 69.84266302 6.20224691 69.48480277 4.4375 69.125 C8.08938082 68.05325237 10.70182828 68.36088533 14.4375 69.125 C14.4375 68.465 14.4375 67.805 14.4375 67.125 C15.0975 67.125 15.7575 67.125 16.4375 67.125 C16.11604004 66.57231445 15.79458008 66.01962891 15.46337891 65.45019531 C14.29190218 62.79499675 14.1243676 60.81520465 14.0234375 57.921875 C13.96542969 56.45234375 13.96542969 56.45234375 13.90625 54.953125 C13.8753125 53.93734375 13.844375 52.9215625 13.8125 51.875 C13.75449219 50.328125 13.75449219 50.328125 13.6953125 48.75 C13.60118326 46.2085106 13.51555021 43.66702567 13.4375 41.125 C12.29095518 43.41808963 12.24020883 44.92409656 12.12109375 47.4765625 C12.05825195 48.75273438 12.05825195 48.75273438 11.99414062 50.0546875 C11.95482422 50.94414063 11.91550781 51.83359375 11.875 52.75 C11.81022461 54.09578125 11.81022461 54.09578125 11.74414062 55.46875 C11.63793139 57.68734283 11.53588806 59.9060488 11.4375 62.125 C9.77138095 62.167721 8.10367115 62.16563832 6.4375 62.125 C5.4375 61.125 5.4375 61.125 5.32397461 58.71655273 C5.32921143 57.67442627 5.33444824 56.6322998 5.33984375 55.55859375 C5.34306641 54.43388672 5.34628906 53.30917969 5.34960938 52.15039062 C5.35798828 50.96638672 5.36636719 49.78238281 5.375 48.5625 C5.37951172 47.37462891 5.38402344 46.18675781 5.38867188 44.96289062 C5.40050325 42.01687774 5.41698713 39.07096319 5.4375 36.125 C4.7775 36.125 4.1175 36.125 3.4375 36.125 C3.1075 36.785 2.7775 37.445 2.4375 38.125 C2.4375 37.465 2.4375 36.805 2.4375 36.125 C1.7775 36.125 1.1175 36.125 0.4375 36.125 C0.4375 44.375 0.4375 52.625 0.4375 61.125 C-0.5525 61.125 -1.5425 61.125 -2.5625 61.125 C-2.8925 46.605 -3.2225 32.085 -3.5625 17.125 C-6.72288121 26.60614362 -6.81731243 35.69829297 -7.125 45.625 C-7.16818359 46.924375 -7.21136719 48.22375 -7.25585938 49.5625 C-7.3613251 52.74990845 -7.46344448 55.93738698 -7.5625 59.125 C-9.5425 59.125 -11.5225 59.125 -13.5625 59.125 C-13.8925 49.555 -14.2225 39.985 -14.5625 30.125 C-15.2225 30.785 -15.8825 31.445 -16.5625 32.125 C-17.5525 31.795 -18.5425 31.465 -19.5625 31.125 C-18.9025 31.125 -18.2425 31.125 -17.5625 31.125 C-17.2325 29.475 -16.9025 27.825 -16.5625 26.125 C-18.5425 26.455 -20.5225 26.785 -22.5625 27.125 C-19.95068636 24.43636831 -17.33327847 21.88177779 -14.4375 19.5 C-13.48875 18.71625 -12.54 17.9325 -11.5625 17.125 C-11.005625 16.67125 -10.44875 16.2175 -9.875 15.75 C-8.12630723 13.58495181 -8.39944677 12.47256761 -8.6875 9.75 C-8.80290026 6.03289693 -8.66477835 5.2799672 -6.5 2 C-3.5625 0.125 -3.5625 0.125 0 0 Z M-1.5625 18.125 C-1.5625 31.985 -1.5625 45.845 -1.5625 60.125 C-1.2325 60.125 -0.9025 60.125 -0.5625 60.125 C-0.5625 46.265 -0.5625 32.405 -0.5625 18.125 C-0.8925 18.125 -1.2225 18.125 -1.5625 18.125 Z M-11.10668945 27.21020508 C-13.25340137 30.03372705 -12.90145094 32.25174479 -12.85546875 35.76171875 C-12.84580078 37.06044922 -12.83613281 38.35917969 -12.82617188 39.69726562 C-12.80110585 41.06901639 -12.77571101 42.44076118 -12.75 43.8125 C-12.7349502 45.19594924 -12.7212623 46.57941401 -12.70898438 47.96289062 C-12.67357223 51.35065207 -12.62418054 54.73763139 -12.5625 58.125 C-11.2425 58.125 -9.9225 58.125 -8.5625 58.125 C-8.5625 47.565 -8.5625 37.005 -8.5625 26.125 C-9.74070163 26.0291699 -9.74070163 26.0291699 -11.10668945 27.21020508 Z M6.4375 28.125 C6.3235109 39.18194276 6.52699317 50.10136372 7.4375 61.125 C8.0975 61.125 8.7575 61.125 9.4375 61.125 C9.51169134 56.90750781 9.5661204 52.69036189 9.60229492 48.47241211 C9.61737589 47.03777448 9.6378438 45.60318292 9.66381836 44.16870117 C9.70023437 42.10584141 9.71723243 40.04359142 9.73046875 37.98046875 C9.7461792 36.73934326 9.76188965 35.49821777 9.77807617 34.21948242 C9.71371502 31.12605573 9.71371502 31.12605573 7.91918945 29.1965332 C7.43023193 28.84292725 6.94127441 28.48932129 6.4375 28.125 Z M16.4375 41.125 C16.40862186 44.60414941 16.39074313 48.08326831 16.375 51.5625 C16.36662109 52.55572266 16.35824219 53.54894531 16.34960938 54.57226562 C16.34638672 55.51650391 16.34316406 56.46074219 16.33984375 57.43359375 C16.33460693 58.30814209 16.32937012 59.18269043 16.32397461 60.08374023 C16.20965191 62.11940206 16.20965191 62.11940206 17.4375 63.125 C19.43708364 63.16580783 21.43795254 63.16754356 23.4375 63.125 C23.62793729 60.57979053 23.76563248 58.04893276 23.875 55.5 C23.93365234 54.78714844 23.99230469 54.07429688 24.05273438 53.33984375 C24.16247016 49.92235795 24.12597575 47.93171168 21.84814453 45.26269531 C20.10264518 43.76655302 18.34508807 42.40614709 16.4375 41.125 Z M30.4375 55.125 C30.4375 58.425 30.4375 61.725 30.4375 65.125 C32.7475 65.455 35.0575 65.785 37.4375 66.125 C38.0238982 63.33776343 38.0238982 63.33776343 37.4375 60.125 C35.27008615 58.02277153 33.04562627 56.70850524 30.4375 55.125 Z M44.4375 65.125 C44.4375 66.115 44.4375 67.105 44.4375 68.125 C45.7575 67.795 47.0775 67.465 48.4375 67.125 C47.1175 66.465 45.7975 65.805 44.4375 65.125 Z " fill="#60A8DB" transform="translate(256.5625,7.875)"/>
<path d="M0 0 C1.9375 1.5 1.9375 1.5 3 4 C2.99723411 5.47975082 2.95122538 6.95971117 2.875 8.4375 C2.7098152 12.31934282 2.71063087 12.68169396 5.5 15.75 C6.325 16.4925 7.15 17.235 8 18 C8.5 20.6875 8.5 20.6875 8 23 C7.01 23.66 6.02 24.32 5 25 C4.01 24.01 3.02 23.02 2 22 C2 33.88 2 45.76 2 58 C1.67 58 1.34 58 1 58 C0.67 48.1 0.34 38.2 0 28 C-0.33 30.31 -0.66 32.62 -1 35 C-1.33 35.33 -1.66 35.66 -2 36 C-2.15764405 37.77869726 -2.25100677 39.56318476 -2.31640625 41.34765625 C-2.37924805 42.96704102 -2.37924805 42.96704102 -2.44335938 44.61914062 C-2.48267578 45.75544922 -2.52199219 46.89175781 -2.5625 48.0625 C-2.62727539 49.77276367 -2.62727539 49.77276367 -2.69335938 51.51757812 C-2.79982839 54.34492195 -2.90184207 57.17235738 -3 60 C-3.99 60 -4.98 60 -6 60 C-6.59950448 47.66232525 -7.19272088 35.35554993 -7 23 C-7.99 23.66 -8.98 24.32 -10 25 C-10.32560662 27.6768071 -10.46496289 30.13436428 -10.4765625 32.81640625 C-10.49993179 33.97389626 -10.49993179 33.97389626 -10.52377319 35.1547699 C-10.57138543 37.62400288 -10.5990881 40.09295185 -10.625 42.5625 C-10.66144049 45.03541909 -10.70201428 47.50817539 -10.74765015 49.98094177 C-10.77496013 51.52109795 -10.79627496 53.06137373 -10.81118774 54.60169983 C-10.88935403 59.88935403 -10.88935403 59.88935403 -12 61 C-13.65 61 -15.3 61 -17 61 C-17.33 53.74 -17.66 46.48 -18 39 C-19.20194812 41.40389624 -19.18703898 43.07014503 -19.28125 45.75390625 C-19.31863281 46.69041016 -19.35601562 47.62691406 -19.39453125 48.59179688 C-19.46498226 50.57616696 -19.53529422 52.56054199 -19.60546875 54.54492188 C-19.64285156 55.48013672 -19.68023437 56.41535156 -19.71875 57.37890625 C-19.74904297 58.2407251 -19.77933594 59.10254395 -19.81054688 59.99047852 C-20 62 -20 62 -21 63 C-22.68608966 63.07205511 -24.37500659 63.08386068 -26.0625 63.0625 C-27.44115234 63.04896484 -27.44115234 63.04896484 -28.84765625 63.03515625 C-29.91306641 63.01775391 -29.91306641 63.01775391 -31 63 C-31.33 61.68 -31.66 60.36 -32 59 C-32.99 61.475 -32.99 61.475 -34 64 C-34.66 63.67 -35.32 63.34 -36 63 C-36 60.36 -36 57.72 -36 55 C-36.99 55.7425 -37.98 56.485 -39 57.25 C-39.556875 57.66765625 -40.11375 58.0853125 -40.6875 58.515625 C-42.44160248 60.1691947 -42.44160248 60.1691947 -42 64 C-40.68 64.33 -39.36 64.66 -38 65 C-40.97 65.495 -40.97 65.495 -44 66 C-44.99 63.03 -44.99 63.03 -46 60 C-46.33 62.31 -46.66 64.62 -47 67 C-51.95 67.99 -51.95 67.99 -57 69 C-55.35 67.02 -53.7 65.04 -52 63 C-52.66 62.67 -53.32 62.34 -54 62 C-54 61.67 -54 61.34 -54 61 C-54.66 61.66 -55.32 62.32 -56 63 C-58.32275177 63.40047444 -60.65739357 63.7397104 -63 64 C-60.21218907 60.91242446 -56.84062885 58.65987271 -53.4375 56.3125 C-52.84775391 55.89677734 -52.25800781 55.48105469 -51.65039062 55.05273438 C-47.24422722 52 -47.24422722 52 -45 52 C-45 51.34 -45 50.68 -45 50 C-43.42578125 48.66796875 -43.42578125 48.66796875 -41.3125 47.1875 C-30.72960411 39.75356371 -21.95259139 28.80694577 -15 18 C-14.43925781 17.18402344 -13.87851563 16.36804688 -13.30078125 15.52734375 C-11.81099656 12.63277711 -11.81842862 11.13672072 -12.125 7.9375 C-12.25557476 3.33302166 -12.25557476 3.33302166 -9.9375 0.3125 C-6.09238485 -1.40553017 -4.01276815 -1.18896834 0 0 Z M-5 17 C-5 30.86 -5 44.72 -5 59 C-4.67 59 -4.34 59 -4 59 C-4 45.14 -4 31.28 -4 17 C-4.33 17 -4.66 17 -5 17 Z M-13 29 C-15.39112209 32.58668313 -15.23381027 34.16396569 -15.1953125 38.41796875 C-15.18886719 39.67158203 -15.18242188 40.92519531 -15.17578125 42.21679688 C-15.15902344 43.52712891 -15.14226562 44.83746094 -15.125 46.1875 C-15.11496639 47.52277987 -15.1058412 48.85806689 -15.09765625 50.19335938 C-15.07405292 53.46242015 -15.04112594 56.73112028 -15 60 C-14.34 60 -13.68 60 -13 60 C-11.56490779 57.12981559 -11.88841494 54.66456277 -11.90234375 51.4609375 C-11.90556641 50.15898438 -11.90878906 48.85703125 -11.91210938 47.515625 C-11.92046534 46.13541601 -11.92893029 44.75520768 -11.9375 43.375 C-11.94251499 41.98698074 -11.9470779 40.59895978 -11.95117188 39.2109375 C-11.96299024 35.80724868 -11.97946566 32.40364561 -12 29 C-12.33 29 -12.66 29 -13 29 Z M-27.4765625 44.4453125 C-30.56169625 49.61884448 -29.47182679 56.18080296 -29 62 C-25.04 61.505 -25.04 61.505 -21 61 C-21 54.07 -21 47.14 -21 40 C-23.5886463 40 -25.76878493 42.76541701 -27.4765625 44.4453125 Z " fill="#56A2D8" transform="translate(97,9)"/>
<path d="M0 0 C9.00988082 -0.34254155 17.83638309 0.90693712 26.75 2.0625 C28.02389084 2.22614548 28.02389084 2.22614548 29.32351685 2.39309692 C56.88054226 5.96721334 85.5688653 10.18962177 112 19 C111.67 21.64 111.34 24.28 111 27 C109.35 27.33 107.7 27.66 106 28 C106 27.34 106 26.68 106 26 C105.0925 25.896875 104.185 25.79375 103.25 25.6875 C100.03475883 25.22908938 96.95421774 24.50746605 93.8125 23.6875 C87.39399386 22.03449277 80.92353172 20.75528734 74.42163086 19.48339844 C69.71381574 18.55767711 65.03930669 17.56662874 60.375 16.4375 C55.15318948 15.20645141 49.91125006 14.21747429 44.625 13.3125 C43.87524902 13.18093506 43.12549805 13.04937012 42.35302734 12.91381836 C37.83695731 12.16483373 33.57734662 11.87318697 29 12 C29 11.34 29 10.68 29 10 C26.03 10 23.06 10 20 10 C20 9.67 20 9.34 20 9 C20.85464844 8.95101562 21.70929688 8.90203125 22.58984375 8.8515625 C23.69457031 8.77679688 24.79929688 8.70203125 25.9375 8.625 C27.59072266 8.52058594 27.59072266 8.52058594 29.27734375 8.4140625 C30.17582031 8.27742188 31.07429688 8.14078125 32 8 C32.33 7.34 32.66 6.68 33 6 C26.38113385 4.88421733 19.82733243 3.9281397 13.125 3.5 C8.45218004 3.18847867 4.41595713 2.54045016 0 1 C0 0.67 0 0.34 0 0 Z " fill="#4797CE" transform="translate(223,78)"/>
<path d="M0 0 C0.66 0 1.32 0 2 0 C2 0.66 2 1.32 2 2 C2.99 1.34 3.98 0.68 5 0 C11.8722565 0.7363132 18.42885395 5.34368023 24.1875 8.875 C30.27245756 12.56031222 36.13513694 15.54120215 42.875 17.8671875 C45 19 45 19 45.90234375 20.9609375 C46.04547053 23.94942463 44.66569052 25.60140564 43 28 C37.61881833 27.41469944 32.56328959 26.4947712 27.3125 25.125 C25.923434 24.76723017 24.53410618 24.41047551 23.14453125 24.0546875 C22.45568848 23.87776367 21.7668457 23.70083984 21.05712891 23.51855469 C16.05890699 22.25861838 11.02748302 21.1363489 6 20 C6 19.34 6 18.68 6 18 C7.65 18 9.3 18 11 18 C11 16.68 11 15.36 11 14 C12.65 14 14.3 14 16 14 C14.08895362 12.08895362 11.40439042 11.17661659 9 10 C9 9.34 9 8.68 9 8 C8.360625 8.185625 7.72125 8.37125 7.0625 8.5625 C6.381875 8.706875 5.70125 8.85125 5 9 C4.67 8.67 4.34 8.34 4 8 C3.67 9.32 3.34 10.64 3 12 C1.68 11.67 0.36 11.34 -1 11 C-0.01 11 0.98 11 2 11 C1.855625 9.741875 1.71125 8.48375 1.5625 7.1875 C1.44068359 6.12595703 1.44068359 6.12595703 1.31640625 5.04296875 C1.02829265 2.80603607 1.02829265 2.80603607 0 0 Z " fill="#58A3D7" transform="translate(293,64)"/>
<path d="M0 0 C2.20927044 0.2844814 4.41738979 0.5779096 6.625 0.875 C8.46964844 1.11863281 8.46964844 1.11863281 10.3515625 1.3671875 C14 2 14 2 20 4 C20 13.9 20 23.8 20 34 C17.69 34 15.38 34 13 34 C11 32 11 32 10.77294922 29.75341797 C10.78342285 28.84221191 10.79389648 27.93100586 10.8046875 26.9921875 C10.81113281 26.00605469 10.81757813 25.01992187 10.82421875 24.00390625 C10.84097656 22.97136719 10.85773438 21.93882813 10.875 20.875 C10.88402344 19.83472656 10.89304687 18.79445313 10.90234375 17.72265625 C10.92596253 15.14820908 10.95889851 12.57421788 11 10 C10.01 10 9.02 10 8 10 C8 16.6 8 23.2 8 30 C4.37673261 31.2077558 3.35853631 30.54311128 0 29 C-0.94917156 19.1353956 -1.50744396 9.82231342 0 0 Z " fill="#53A2D8" transform="translate(254,92)"/>
<path d="M0 0 C0 9.57 0 19.14 0 29 C-1.65 29.66 -3.3 30.32 -5 31 C-5.99 30.34 -6.98 29.68 -8 29 C-8.34057617 26.93701172 -8.34057617 26.93701172 -8.29296875 24.4296875 C-8.28330078 23.53378906 -8.27363281 22.63789062 -8.26367188 21.71484375 C-8.23853516 20.77769531 -8.21339844 19.84054688 -8.1875 18.875 C-8.17396484 17.93011719 -8.16042969 16.98523438 -8.14648438 16.01171875 C-8.11106306 13.67391221 -8.06167271 11.33723763 -8 9 C-8.99 9 -9.98 9 -11 9 C-10.98952637 9.68626465 -10.97905273 10.3725293 -10.96826172 11.07958984 C-10.92678126 14.17802289 -10.90069931 17.27639761 -10.875 20.375 C-10.85824219 21.45523438 -10.84148437 22.53546875 -10.82421875 23.6484375 C-10.81777344 24.6796875 -10.81132813 25.7109375 -10.8046875 26.7734375 C-10.79421387 27.72653809 -10.78374023 28.67963867 -10.77294922 29.66162109 C-11 32 -11 32 -13 34 C-15 34.6875 -15 34.6875 -17 35 C-17.66 34.67 -18.32 34.34 -19 34 C-20.79174047 23.77928914 -19.80827029 13.27125012 -19 3 C-15.29522922 1.37702278 -11.79984921 0.47127944 -7.8125 -0.1875 C-6.76707031 -0.36667969 -5.72164062 -0.54585938 -4.64453125 -0.73046875 C-2 -1 -2 -1 0 0 Z " fill="#58A6DB" transform="translate(93,93)"/>
<path d="M0 0 C0.79481277 0.00141495 1.58962555 0.0028299 2.40852356 0.00428772 C4.9455645 0.00988247 7.482517 0.02243397 10.01953125 0.03515625 C11.7402331 0.04017193 13.46093633 0.04473472 15.18164062 0.04882812 C19.39847155 0.05985018 23.61523641 0.07711119 27.83203125 0.09765625 C27.83203125 1.08765625 27.83203125 2.07765625 27.83203125 3.09765625 C30.80203125 3.59265625 30.80203125 3.59265625 33.83203125 4.09765625 C33.83203125 4.42765625 33.83203125 4.75765625 33.83203125 5.09765625 C32.09469727 5.13524048 32.09469727 5.13524048 30.32226562 5.17358398 C25.94604992 5.26912391 21.56994023 5.36896084 17.19384766 5.4699707 C15.31464145 5.51277467 13.43540975 5.55447659 11.55615234 5.5949707 C-8.04164093 5.89167215 -8.04164093 5.89167215 -27.54296875 7.66015625 C-30.61280863 7.99354431 -33.62340452 8.15490367 -36.7109375 8.16015625 C-37.53352051 8.16200928 -38.35610352 8.1638623 -39.20361328 8.16577148 C-42.85863735 8.15764921 -46.51310256 8.13314039 -50.16796875 8.09765625 C-50.16796875 7.43765625 -50.16796875 6.77765625 -50.16796875 6.09765625 C-51.48796875 5.76765625 -52.80796875 5.43765625 -54.16796875 5.09765625 C-53.03359375 4.95328125 -51.89921875 4.80890625 -50.73046875 4.66015625 C-47.36019674 4.48594147 -47.36019674 4.48594147 -46.16796875 3.09765625 C-41.58969994 2.30403277 -37.10522555 1.94221989 -32.46484375 1.81640625 C-31.23765625 1.77902344 -30.01046875 1.74164063 -28.74609375 1.703125 C-26.17839723 1.63238234 -23.61068869 1.56207504 -21.04296875 1.4921875 C-19.8209375 1.45480469 -18.59890625 1.41742188 -17.33984375 1.37890625 C-16.22706055 1.34861328 -15.11427734 1.31832031 -13.96777344 1.28710938 C-9.22120359 0.96592537 -4.86702975 -0.0325402 0 0 Z M-52.16796875 8.09765625 C-50.16796875 9.09765625 -50.16796875 9.09765625 -50.16796875 9.09765625 Z " fill="#2D8DCB" transform="translate(154.16796875,76.90234375)"/>
<path d="M0 0 C-0.33 1.98 -0.66 3.96 -1 6 C-0.01 6.66 0.98 7.32 2 8 C1.19175781 8.29519531 0.38351563 8.59039062 -0.44921875 8.89453125 C-3.13528799 10.68700891 -3.13528799 10.68700891 -3.50634766 13.02880859 C-3.71871146 15.59009175 -3.79557985 18.11751711 -3.8125 20.6875 C-3.83763672 21.58017578 -3.86277344 22.47285156 -3.88867188 23.39257812 C-3.94757338 25.59549439 -3.98382754 27.79642319 -4 30 C-1.36 30 1.28 30 4 30 C4 22.08 4 14.16 4 6 C4.33 6 4.66 6 5 6 C5 14.25 5 22.5 5 31 C1.7 31 -1.6 31 -5 31 C-5.06058594 30.21753906 -5.12117188 29.43507813 -5.18359375 28.62890625 C-5.26738281 27.61699219 -5.35117188 26.60507812 -5.4375 25.5625 C-5.51871094 24.55316406 -5.59992188 23.54382813 -5.68359375 22.50390625 C-5.73211468 20.06359221 -5.73211468 20.06359221 -7 19 C-7.33 22.63 -7.66 26.26 -8 30 C-11.96 30 -15.92 30 -20 30 C-20 25.71 -20 21.42 -20 17 C-18.68 16.67 -17.36 16.34 -16 16 C-16.2475 15.0409375 -16.2475 15.0409375 -16.5 14.0625 C-17 12 -17 12 -17 11 C-17.57443848 11.15146484 -18.14887695 11.30292969 -18.74072266 11.45898438 C-21.36690162 12.14688134 -23.99585877 12.82351721 -26.625 13.5 C-27.52863281 13.73847656 -28.43226563 13.97695313 -29.36328125 14.22265625 C-34.00939877 15.40962058 -38.16031428 16.3215738 -43 16 C-43 15.67 -43 15.34 -43 15 C-41.14761719 14.5978125 -41.14761719 14.5978125 -39.2578125 14.1875 C-27.82331079 11.58477338 -10.51052566 0 0 0 Z M-18 17 C-18 20.96 -18 24.92 -18 29 C-15.36 29 -12.72 29 -10 29 C-10 24.05 -10 19.1 -10 14 C-12.60939857 14 -15.6401989 15.97026861 -18 17 Z " fill="#7AB8DF" transform="translate(234,35)"/>
<path d="M0 0 C11.78410561 1.60474609 23.71099272 4.23699757 35 8 C34.67 10.64 34.34 13.28 34 16 C32.35 16.33 30.7 16.66 29 17 C29 16.34 29 15.68 29 15 C28.0925 14.896875 27.185 14.79375 26.25 14.6875 C20.73560977 13.9045237 15.38464944 12.39417608 10 11 C8.41709536 10.6024558 6.83382853 10.20634724 5.25 9.8125 C4.1775 9.544375 3.105 9.27625 2 9 C2 8.67 2 8.34 2 8 C3.98 7.34 5.96 6.68 8 6 C6.37633534 2.75267068 3.24612161 2.29844864 0 1 C0 0.67 0 0.34 0 0 Z " fill="#4899D2" transform="translate(300,89)"/>
<path d="M0 0 C1.21755981 -0.00006042 2.43511963 -0.00012085 3.6895752 -0.00018311 C48.74382722 0.03169036 48.74382722 0.03169036 69.375 4.1875 C69.375 4.5175 69.375 4.8475 69.375 5.1875 C67.89668779 5.38162181 66.41730684 5.56762131 64.9375 5.75 C64.11378906 5.85441406 63.29007812 5.95882812 62.44140625 6.06640625 C61.41853516 6.12634766 61.41853516 6.12634766 60.375 6.1875 C59.88 5.6925 59.88 5.6925 59.375 5.1875 C39.96244537 2.27262289 19.7442691 2.99385706 0.1875 3 C-1.0518631 2.99918427 -2.2912262 2.99836853 -3.56814575 2.99752808 C-7.163977 2.99779545 -10.75966218 3.00669145 -14.35546875 3.01953125 C-15.42858307 3.02072968 -16.50169739 3.0219281 -17.60733032 3.02316284 C-23.5197044 3.05948928 -29.3155096 3.35561645 -35.19233704 4.01737976 C-38.79474814 4.26930247 -42.07264982 3.79072928 -45.625 3.1875 C-35.1119618 -3.82119214 -12.2023627 -0.00925512 0 0 Z " fill="#419AD1" transform="translate(173.625,81.8125)"/>
<path d="M0 0 C0 3 0 3 -1.875 5.1875 C-4 7 -4 7 -6 7 C-6.26554687 7.57363281 -6.53109375 8.14726563 -6.8046875 8.73828125 C-8.05267542 11.09967017 -9.48804627 13.08002092 -11.125 15.1875 C-13.1173104 17.36360457 -13.1173104 17.36360457 -14 20 C-13.34 20 -12.68 20 -12 20 C-12.57344937 22.86724686 -12.8614515 23.8614515 -15 26 C-15 27.32 -15 28.64 -15 30 C-13.68 30.33 -12.36 30.66 -11 31 C-12.98 31.33 -14.96 31.66 -17 32 C-17.66 30.02 -18.32 28.04 -19 26 C-19.33 28.31 -19.66 30.62 -20 33 C-23.3 33.66 -26.6 34.32 -30 35 C-28.35 33.02 -26.7 31.04 -25 29 C-25.66 28.67 -26.32 28.34 -27 28 C-27 27.67 -27 27.34 -27 27 C-27.66 27.66 -28.32 28.32 -29 29 C-31.32275177 29.40047444 -33.65739357 29.7397104 -36 30 C-33.21218907 26.91242446 -29.84062885 24.65987271 -26.4375 22.3125 C-25.84775391 21.89677734 -25.25800781 21.48105469 -24.65039062 21.05273438 C-20.24422722 18 -20.24422722 18 -18 18 C-18 17.34 -18 16.68 -18 16 C-16.42578125 14.66796875 -16.42578125 14.66796875 -14.3125 13.1875 C-10.8808204 10.69832395 -7.92526248 8.08338477 -5 5 C-3.33333333 3.33333333 -1.66666667 1.66666667 0 0 Z " fill="#6DB0DC" transform="translate(70,43)"/>
<path d="M0 0 C6.18298492 -0.10422274 12.07616395 0.2329267 18.19921875 1.05859375 C19.03789993 1.1672023 19.87658112 1.27581085 20.74067688 1.38771057 C23.3903498 1.73228978 26.03888614 2.08488319 28.6875 2.4375 C30.47454406 2.67042357 32.26165303 2.90284963 34.04882812 3.13476562 C47.96921494 4.95250041 47.96921494 4.95250041 54 6 C54 6.33 54 6.66 54 7 C53.04287109 7.07347656 53.04287109 7.07347656 52.06640625 7.1484375 C51.24011719 7.22320312 50.41382813 7.29796875 49.5625 7.375 C48.73878906 7.44460937 47.91507812 7.51421875 47.06640625 7.5859375 C46.38449219 7.72257812 45.70257813 7.85921875 45 8 C44.67 8.66 44.34 9.32 44 10 C46.475 11.98 46.475 11.98 49 14 C48.14277344 13.855625 47.28554688 13.71125 46.40234375 13.5625 C40.54390042 12.61141112 34.93817322 11.7238059 29 12 C29 11.34 29 10.68 29 10 C26.03 10 23.06 10 20 10 C20 9.67 20 9.34 20 9 C20.85464844 8.95101562 21.70929688 8.90203125 22.58984375 8.8515625 C23.69457031 8.77679688 24.79929688 8.70203125 25.9375 8.625 C27.59072266 8.52058594 27.59072266 8.52058594 29.27734375 8.4140625 C30.17582031 8.27742188 31.07429688 8.14078125 32 8 C32.33 7.34 32.66 6.68 33 6 C26.38113385 4.88421733 19.82733243 3.9281397 13.125 3.5 C8.45218004 3.18847867 4.41595713 2.54045016 0 1 C0 0.67 0 0.34 0 0 Z " fill="#61A6D5" transform="translate(223,78)"/>
<path d="M0 0 C-2 2 -2 2 -4 3 C-2.68 3 -1.36 3 0 3 C0 3.66 0 4.32 0 5 C1.98 5.33 3.96 5.66 6 6 C6 6.33 6 6.66 6 7 C5.16750732 7.176521 4.33501465 7.35304199 3.47729492 7.53491211 C0.38520319 8.19141221 -2.70655487 8.84945586 -5.7980957 9.50854492 C-7.13552923 9.79334321 -8.47309354 10.07752807 -9.81079102 10.36108398 C-11.73488182 10.76905125 -13.65846363 11.17941673 -15.58203125 11.58984375 C-16.73936768 11.83597412 -17.8967041 12.08210449 -19.08911133 12.33569336 C-22.0417502 12.9599029 -22.0417502 12.9599029 -25 14 C-25.33 13.34 -25.66 12.68 -26 12 C-22.535 11.505 -22.535 11.505 -19 11 C-19 10.34 -19 9.68 -19 9 C-18.01 9 -17.02 9 -16 9 C-16.33 7.68 -16.66 6.36 -17 5 C-17.99 5.33 -18.98 5.66 -20 6 C-24.08594833 7.1865126 -27.76342394 7.14865179 -32 7 C-28.96606633 5.33175731 -26.1313273 4.44886143 -22.75390625 3.7109375 C-21.75166016 3.49179688 -20.74941406 3.27265625 -19.71679688 3.046875 C-18.67587891 2.82515625 -17.63496094 2.6034375 -16.5625 2.375 C-15.52544922 2.14554687 -14.48839844 1.91609375 -13.41992188 1.6796875 C-8.85371997 0.69430289 -4.69007002 -0.13864361 0 0 Z " fill="#5FA9D8" transform="translate(59,87)"/>
<path d="M0 0 C0.6875 1.6875 0.6875 1.6875 1 4 C-0.8167672 7.72915372 -3.36138548 10.81546523 -6 14 C-5.34 14 -4.68 14 -4 14 C-4.33 24.89 -4.66 35.78 -5 47 C-3.68 47 -2.36 47 -1 47 C-1.16298584 46.31139893 -1.32597168 45.62279785 -1.49389648 44.91333008 C-2.0556184 41.67983873 -2.11264124 38.66843091 -2.09765625 35.38671875 C-2.09443359 34.13955078 -2.09121094 32.89238281 -2.08789062 31.60742188 C-2.07532227 29.66706055 -2.07532227 29.66706055 -2.0625 27.6875 C-2.05573242 25.71813477 -2.05573242 25.71813477 -2.04882812 23.70898438 C-2.03705949 20.4726099 -2.0206176 17.23632822 -2 14 C-1.34 13.67 -0.68 13.34 0 13 C0 24.55 0 36.1 0 48 C-1.98 48 -3.96 48 -6 48 C-6.33 38.43 -6.66 28.86 -7 19 C-7.66 19.66 -8.32 20.32 -9 21 C-9.99 20.67 -10.98 20.34 -12 20 C-11.34 20 -10.68 20 -10 20 C-9.67 18.35 -9.34 16.7 -9 15 C-10.98 15.33 -12.96 15.66 -15 16 C-12.38818636 13.31136831 -9.77077847 10.75677779 -6.875 8.375 C-2.44434274 4.87351348 -2.44434274 4.87351348 0 0 Z " fill="#82BDE3" transform="translate(249,19)"/>
<path d="M0 0 C0.66 0 1.32 0 2 0 C2 0.66 2 1.32 2 2 C2.99 1.34 3.98 0.68 5 0 C11.15864798 0.65985514 17.13829675 4.32407803 22 8 C22 8.66 22 9.32 22 10 C20.68 10 19.36 10 18 10 C18 10.66 18 11.32 18 12 C15.36 11.67 12.72 11.34 10 11 C9.67 10.01 9.34 9.02 9 8 C8.360625 8.185625 7.72125 8.37125 7.0625 8.5625 C6.381875 8.706875 5.70125 8.85125 5 9 C4.67 8.67 4.34 8.34 4 8 C3.67 9.32 3.34 10.64 3 12 C1.68 11.67 0.36 11.34 -1 11 C-0.01 11 0.98 11 2 11 C1.855625 9.741875 1.71125 8.48375 1.5625 7.1875 C1.44068359 6.12595703 1.44068359 6.12595703 1.31640625 5.04296875 C1.02829265 2.80603607 1.02829265 2.80603607 0 0 Z " fill="#4C9DD5" transform="translate(293,64)"/>
<path d="M0 0 C0.66 0 1.32 0 2 0 C3.00708069 11.0239368 3.10611887 21.94005573 3 33 C1.33333333 33 -0.33333333 33 -2 33 C-2.04938149 28.62176083 -2.0857104 24.24366854 -2.10986328 19.86523438 C-2.11993043 18.3752968 -2.13358518 16.88537903 -2.15087891 15.39550781 C-2.17509653 13.25580972 -2.18647564 11.11637247 -2.1953125 8.9765625 C-2.21102295 7.04417725 -2.21102295 7.04417725 -2.22705078 5.07275391 C-2 2 -2 2 0 0 Z " fill="#3390D1" transform="translate(88,32)"/>
<path d="M0 0 C1.65 0 3.3 0 5 0 C5 7.92 5 15.84 5 24 C3.33333333 24 1.66666667 24 0 24 C0 16.08 0 8.16 0 0 Z " fill="#3190D4" transform="translate(257,44)"/>
<path d="M0 0 C0.66 0 1.32 0 2 0 C2.02887236 3.81248426 2.04675492 7.6249407 2.0625 11.4375 C2.07087891 12.52611328 2.07925781 13.61472656 2.08789062 14.73632812 C2.09272461 16.28803711 2.09272461 16.28803711 2.09765625 17.87109375 C2.10551147 19.30859985 2.10551147 19.30859985 2.11352539 20.77514648 C2 23 2 23 1 24 C-0.68608966 24.07205511 -2.37500659 24.08386068 -4.0625 24.0625 C-4.98160156 24.05347656 -5.90070313 24.04445313 -6.84765625 24.03515625 C-7.55792969 24.02355469 -8.26820312 24.01195313 -9 24 C-9.33 22.68 -9.66 21.36 -10 20 C-10.99 22.475 -10.99 22.475 -12 25 C-12.66 24.67 -13.32 24.34 -14 24 C-14 20.37 -14 16.74 -14 13 C-13.01 12.67 -12.02 12.34 -11 12 C-11 11.34 -11 10.68 -11 10 C-10.34 10 -9.68 10 -9 10 C-9 9.34 -9 8.68 -9 8 C-8.34 8 -7.68 8 -7 8 C-7 12.95 -7 17.9 -7 23 C-3.04 22.505 -3.04 22.505 1 22 C0.83628906 21.00871094 0.67257813 20.01742187 0.50390625 18.99609375 C-0.06604226 15.00645421 -0.09817505 11.09378059 -0.0625 7.0625 C-0.05798828 6.37865234 -0.05347656 5.69480469 -0.04882812 4.99023438 C-0.0371956 3.32678396 -0.01926694 1.6633795 0 0 Z " fill="#80BBDF" transform="translate(75,48)"/>
<path d="M0 0 C11.78410561 1.60474609 23.71099272 4.23699757 35 8 C34.67 10.64 34.34 13.28 34 16 C32.35 16.33 30.7 16.66 29 17 C29 16.34 29 15.68 29 15 C26.69 14.67 24.38 14.34 22 14 C25.81489674 12.53273202 28.29011622 13.56663581 32 15 C30.15811388 12.94729537 30.15811388 12.94729537 28 12 C28 10.68 28 9.36 28 8 C26.35 8 24.7 8 23 8 C23 7.34 23 6.68 23 6 C21.865625 6.020625 20.73125 6.04125 19.5625 6.0625 C16 6 16 6 15 5 C11.96813938 4.50223184 8.92854734 4.09896411 5.8828125 3.6953125 C2.90696865 2.97756154 1.85116407 2.3689722 0 0 Z " fill="#91C4E5" transform="translate(300,89)"/>
<path d="M0 0 C4.83540096 2.61111652 8.87103901 5.37457083 13 9 C12.01 9 11.02 9 10 9 C7.99690671 9.31421071 5.99628664 9.6451046 4 10 C4 9.34 4 8.68 4 8 C3.34 8 2.68 8 2 8 C2.99 9.485 2.99 9.485 4 11 C4.25760279 13.69452521 4.08900053 16.28548375 4 19 C1.03 18.67 -1.94 18.34 -5 18 C-5 13.71 -5 9.42 -5 5 C-2.525 5.495 -2.525 5.495 0 6 C0 4.02 0 2.04 0 0 Z M-4 7 C-4 10.3 -4 13.6 -4 17 C-1.69 17.33 0.62 17.66 3 18 C3.5863982 15.21276343 3.5863982 15.21276343 3 12 C0.83258615 9.89777153 -1.39187373 8.58350524 -4 7 Z " fill="#85BEE4" transform="translate(291,56)"/>
<path d="M0 0 C0.65392731 -0.00029205 1.30785461 -0.00058411 1.9815979 -0.00088501 C4.14061809 0.00050708 6.29929213 0.01606221 8.45825195 0.03173828 C9.95611889 0.03546885 11.45398827 0.03831562 12.95185852 0.04031372 C16.89253487 0.04794675 20.83306359 0.06759234 24.77368164 0.08972168 C28.79547122 0.11018726 32.81728468 0.11931696 36.83911133 0.12939453 C44.729153 0.1508386 52.61907473 0.18497049 60.5090332 0.22705078 C58.5090332 2.22705078 58.5090332 2.22705078 56.48231506 2.46083069 C55.6494548 2.45337326 54.81659454 2.44591583 53.95849609 2.43823242 C53.01313492 2.43485367 52.06777374 2.43147491 51.09376526 2.42799377 C50.06678024 2.41453415 49.03979523 2.40107452 47.98168945 2.38720703 C46.39365761 2.37940468 46.39365761 2.37940468 44.77354431 2.3714447 C41.37273669 2.3535856 37.97222593 2.32246459 34.5715332 2.28955078 C31.20300247 2.26179546 27.83452092 2.237029 24.46592712 2.21836853 C22.36885101 2.20626844 20.27179624 2.18882567 18.17481995 2.16505432 C12.37679806 2.12616638 6.72381679 2.39827768 0.96092224 3.05198669 C-2.65033828 3.30982953 -5.92964087 2.83180424 -9.4909668 2.22705078 C-5.88622243 -0.17611213 -4.28407088 -0.01607531 0 0 Z " fill="#96C8E5" transform="translate(137.490966796875,82.77294921875)"/>
<path d="M0 0 C-1.98 0.99 -1.98 0.99 -4 2 C-2.68 2.66 -1.36 3.32 0 4 C-6.78743178 6.81552726 -12.68889006 7.3689719 -20 7 C-18.68 6.67 -17.36 6.34 -16 6 C-16 5.34 -16 4.68 -16 4 C-20.455 4.495 -20.455 4.495 -25 5 C-17.44664681 -0.0355688 -8.78164529 -0.15681509 0 0 Z " fill="#2F8BC9" transform="translate(75,86)"/>
<path d="M0 0 C6.18298492 -0.10422274 12.07616395 0.2329267 18.19921875 1.05859375 C19.03789993 1.1672023 19.87658112 1.27581085 20.74067688 1.38771057 C23.3903498 1.73228978 26.03888614 2.08488319 28.6875 2.4375 C30.47454406 2.67042357 32.26165303 2.90284963 34.04882812 3.13476562 C47.96921494 4.95250041 47.96921494 4.95250041 54 6 C54 6.33 54 6.66 54 7 C33.21853737 6.27496244 33.21853737 6.27496244 22.9921875 4.46875 C19.70148603 3.95323541 16.44850575 3.71101624 13.125 3.5 C8.45218004 3.18847867 4.41595713 2.54045016 0 1 C0 0.67 0 0.34 0 0 Z " fill="#7AB9DF" transform="translate(223,78)"/>
<path d="M0 0 C-0.33 0.33 -0.66 0.66 -1 1 C-0.34 1.66 0.32 2.32 1 3 C0.34 3 -0.32 3 -1 3 C-1 3.66 -1 4.32 -1 5 C-1.99 5.33 -2.98 5.66 -4 6 C-4.80563638 8.10584438 -4.80563638 8.10584438 -5.1875 10.5625 C-5.34605469 11.38878906 -5.50460938 12.21507812 -5.66796875 13.06640625 C-5.77753906 13.70449219 -5.88710937 14.34257813 -6 15 C-8.1519437 11.77208445 -8.20086443 10.71599191 -8 7 C-9.65 7.33 -11.3 7.66 -13 8 C-12.79375 7.38125 -12.5875 6.7625 -12.375 6.125 C-12.25125 5.42375 -12.1275 4.7225 -12 4 C-12.66 3.34 -13.32 2.68 -14 2 C-12.04396149 1.47061343 -10.08507711 0.95173199 -8.125 0.4375 C-7.03445312 0.14746094 -5.94390625 -0.14257812 -4.8203125 -0.44140625 C-2 -1 -2 -1 0 0 Z " fill="#348FD0" transform="translate(219,46)"/>
<path d="M0 0 C2 1 4 2 6 3 C6 4.98 6 6.96 6 9 C4.68 9 3.36 9 2 9 C1.67 12.63 1.34 16.26 1 20 C0.67 20 0.34 20 0 20 C-0.33 16.7 -0.66 13.4 -1 10 C-1.33 11.98 -1.66 13.96 -2 16 C-2.33 16 -2.66 16 -3 16 C-3.0810206 13.89646505 -3.13919907 11.79204048 -3.1875 9.6875 C-3.22230469 8.51574219 -3.25710938 7.34398437 -3.29296875 6.13671875 C-3 3 -3 3 -1.48828125 1.08203125 C-0.99714844 0.72496094 -0.50601562 0.36789063 0 0 Z " fill="#4097D2" transform="translate(285,53)"/>
<path d="M0 0 C4.16402829 1.38800943 4.16402829 1.38800943 6 4 C6.26153286 6.51727719 6.3497922 8.78103966 6.29296875 11.29296875 C6.28872391 11.99899734 6.28447906 12.70502594 6.28010559 13.43244934 C6.26333034 15.68452303 6.22568243 17.93569742 6.1875 20.1875 C6.17245157 21.71548185 6.15876344 23.24347776 6.14648438 24.77148438 C6.11343089 28.51466872 6.06165832 32.25718196 6 36 C4.02 36 2.04 36 0 36 C0 24.12 0 12.24 0 0 Z M1 3 C1 13.56 1 24.12 1 35 C2.32 35 3.64 35 5 35 C5 25.1 5 15.2 5 5 C3.68 4.34 2.36 3.68 1 3 Z " fill="#B0D7EC" transform="translate(99,31)"/>
<path d="M0 0 C0.99 1.485 0.99 1.485 2 3 C2.53238281 3.40863281 3.06476563 3.81726563 3.61328125 4.23828125 C5.82214234 7.04446816 5.28345153 9.70126119 5.1875 13.1875 C5.16042969 14.45980469 5.13335937 15.73210937 5.10546875 17.04296875 C5.07066406 18.01878906 5.03585938 18.99460937 5 20 C3.35 20 1.7 20 0 20 C0 13.4 0 6.8 0 0 Z " fill="#2E91D7" transform="translate(87,101)"/>
<path d="M0 0 C1.98 0 3.96 0 6 0 C6 7.92 6 15.84 6 24 C5.34 23.67 4.68 23.34 4 23 C4 15.74 4 8.48 4 1 C3.01 1 2.02 1 1 1 C1 7.6 1 14.2 1 21 C-2 22 -2 22 -4.1875 21.0625 C-5.0846875 20.5365625 -5.0846875 20.5365625 -6 20 C-4.35 20 -2.7 20 -1 20 C-0.67 13.4 -0.34 6.8 0 0 Z " fill="#B4D8EC" transform="translate(261,101)"/>
<path d="M0 0 C2.0625 0.4375 2.0625 0.4375 4 1 C3.01 1.495 3.01 1.495 2 2 C1.67 11.24 1.34 20.48 1 30 C2.65 30 4.3 30 6 30 C5 32 5 32 3.0625 32.6875 C1 33 1 33 -1 32 C-2.77212362 21.89119048 -2.07464633 11.16137811 -1 1 C-0.67 0.67 -0.34 0.34 0 0 Z " fill="#91C7E6" transform="translate(75,95)"/>
<path d="M0 0 C2 2 2 2 2.24291992 4.03125 C2.23881104 4.8459375 2.23470215 5.660625 2.23046875 6.5 C2.22853516 7.386875 2.22660156 8.27375 2.22460938 9.1875 C2.21236328 10.115625 2.20011719 11.04375 2.1875 12 C2.18685547 12.928125 2.18621094 13.85625 2.18554688 14.8125 C2.14037187 21.71925626 2.14037187 21.71925626 1 24 C0.34 24 -0.32 24 -1 24 C-1.02887236 20.18751574 -1.04675492 16.3750593 -1.0625 12.5625 C-1.07087891 11.47388672 -1.07925781 10.38527344 -1.08789062 9.26367188 C-1.09111328 8.22919922 -1.09433594 7.19472656 -1.09765625 6.12890625 C-1.10289307 5.17056885 -1.10812988 4.21223145 -1.11352539 3.22485352 C-1 1 -1 1 0 0 Z " fill="#4293CA" transform="translate(107,38)"/>
<path d="M0 0 C0 0.33 0 0.66 0 1 C-1.7015625 1.2165625 -1.7015625 1.2165625 -3.4375 1.4375 C-6.80777201 1.61171478 -6.80777201 1.61171478 -8 3 C-11.2098693 3.26998901 -14.41230859 3.44611437 -17.62890625 3.60546875 C-21.10944277 3.4970552 -21.10944277 3.4970552 -24 5 C-26.69654854 5.07319621 -29.36691458 5.09242537 -32.0625 5.0625 C-32.82111328 5.05798828 -33.57972656 5.05347656 -34.36132812 5.04882812 C-36.24091871 5.0370068 -38.12046899 5.01907078 -40 5 C-40 4.67 -40 4.34 -40 4 C-35.75090183 3.42275823 -31.5008363 2.85342654 -27.24975586 2.29101562 C-25.80741675 2.09911159 -24.36535002 1.9051475 -22.92358398 1.70898438 C-15.25834838 0.66746883 -7.75673109 -0.27733564 0 0 Z " fill="#7BBADF" transform="translate(115,79)"/>
<path d="M0 0 C3.92858919 -0.05012431 7.85704984 -0.08605502 11.78588867 -0.10986328 C13.76552896 -0.12464917 15.74508063 -0.15008592 17.72460938 -0.17578125 C25.38728011 -0.21457958 32.52587958 0.27107972 40 2 C40 2.33 40 2.66 40 3 C38.52168779 3.19412181 37.04230684 3.38012131 35.5625 3.5625 C34.73878906 3.66691406 33.91507813 3.77132812 33.06640625 3.87890625 C32.04353516 3.93884766 32.04353516 3.93884766 31 4 C30.67 3.67 30.34 3.34 30 3 C27.78465376 2.77044901 25.56267753 2.60435215 23.33984375 2.46484375 C22.34314415 2.40037804 22.34314415 2.40037804 21.3263092 2.33460999 C19.19695686 2.19789156 17.06726418 2.06762962 14.9375 1.9375 C13.49671785 1.84612702 12.05596216 1.75433561 10.61523438 1.66210938 C7.0771176 1.4365442 3.53866779 1.21676904 0 1 C0 0.67 0 0.34 0 0 Z " fill="#90C5E4" transform="translate(203,84)"/>
<path d="M0 0 C-0.639375 0.4125 -1.27875 0.825 -1.9375 1.25 C-4.41464576 3.00723864 -4.41464576 3.00723864 -5 7 C-1.37 7 2.26 7 6 7 C2.52630934 8.73684533 0.92380063 9.30084112 -2.75 9.625 C-3.54921875 9.69976562 -4.3484375 9.77453125 -5.171875 9.8515625 C-5.77515625 9.90054688 -6.3784375 9.94953125 -7 10 C-8.25664978 7.09399739 -9 5.20395416 -9 2 C-3.375 -1.125 -3.375 -1.125 0 0 Z " fill="#87C0E2" transform="translate(18,82)"/>
<path d="M0 0 C1.50433594 0.01353516 1.50433594 0.01353516 3.0390625 0.02734375 C3.80992187 0.03894531 4.58078125 0.05054688 5.375 0.0625 C5.375 2.3725 5.375 4.6825 5.375 7.0625 C4.715 7.0625 4.055 7.0625 3.375 7.0625 C3.375 5.4125 3.375 3.7625 3.375 2.0625 C-1.08 2.5575 -1.08 2.5575 -5.625 3.0625 C-5.625 4.0525 -5.625 5.0425 -5.625 6.0625 C-2.985 6.0625 -0.345 6.0625 2.375 6.0625 C2.375 6.3925 2.375 6.7225 2.375 7.0625 C-0.925 7.0625 -4.225 7.0625 -7.625 7.0625 C-7.625 5.0825 -7.625 3.1025 -7.625 1.0625 C-4.98041621 -0.25979189 -2.94738699 -0.03427194 0 0 Z " fill="#8CC3E5" transform="translate(190.625,55.9375)"/>
<path d="M0 0 C3.60605593 0.24867812 7.20912901 0.5277283 10.8125 0.8125 C11.83666016 0.88275391 12.86082031 0.95300781 13.91601562 1.02539062 C15.39038086 1.14624023 15.39038086 1.14624023 16.89453125 1.26953125 C17.80050049 1.33760986 18.70646973 1.40568848 19.63989258 1.47583008 C22.32777783 2.07279808 23.28870253 2.8924542 25 5 C22.10750374 6.44624813 20.09128096 5.67381051 16.9375 5.125 C15.85339844 4.94195312 14.76929688 4.75890625 13.65234375 4.5703125 C11 4 11 4 10 3 C8.32115762 2.6068352 6.63149955 2.25914548 4.9375 1.9375 C4.01839844 1.76089844 3.09929687 1.58429688 2.15234375 1.40234375 C1.44207031 1.26957031 0.73179687 1.13679688 0 1 C0 0.67 0 0.34 0 0 Z " fill="#A1CEE8" transform="translate(277,92)"/>
<path d="M0 0 C-0.33 0.66 -0.66 1.32 -1 2 C-3.109375 2.37890625 -3.109375 2.37890625 -5.75 2.5625 C-8.50264767 2.78177208 -11.102203 3.0204406 -13.8125 3.5625 C-16.25141938 4.05028388 -18.51923123 4.07087911 -21 4 C-14.23124259 -0.51250494 -7.88231789 -0.22958207 0 0 Z " fill="#7CB9E0" transform="translate(87,89)"/>
<path d="M0 0 C1.27133789 0.00966797 1.27133789 0.00966797 2.56835938 0.01953125 C3.8899707 0.04466797 3.8899707 0.04466797 5.23828125 0.0703125 C6.57729492 0.08384766 6.57729492 0.08384766 7.94335938 0.09765625 C10.14610439 0.12121502 12.34830713 0.15410921 14.55078125 0.1953125 C8.22680268 4.41129821 -0.21619456 3.42356189 -7.44921875 2.1953125 C-4.2960709 0.09321393 -3.58818794 -0.0481636 0 0 Z " fill="#74B6DD" transform="translate(135.44921875,82.8046875)"/>
<path d="M0 0 C4.29 0 8.58 0 13 0 C12.67 1.32 12.34 2.64 12 4 C8.7 3.67 5.4 3.34 2 3 C2 2.34 2 1.68 2 1 C1.34 0.67 0.68 0.34 0 0 Z " fill="#2D8ACF" transform="translate(167,54)"/>
<path d="M0 0 C0.33 0 0.66 0 1 0 C1 5.94 1 11.88 1 18 C0.34 18.33 -0.32 18.66 -1 19 C-1.22237877 16.58388467 -1.42832339 14.1682283 -1.625 11.75 C-1.72167969 10.72712891 -1.72167969 10.72712891 -1.8203125 9.68359375 C-2.11594735 5.8772951 -2.17561392 3.22190154 0 0 Z " fill="#328FCC" transform="translate(79,46)"/>
<path d="M0 0 C-0.66 1.65 -1.32 3.3 -2 5 C-2.66 5 -3.32 5 -4 5 C-4 5.99 -4 6.98 -4 8 C-5.65 8 -7.3 8 -9 8 C-8.3125 4.625 -8.3125 4.625 -7 1 C-2.90909091 -1.45454545 -2.90909091 -1.45454545 0 0 Z " fill="#328DD0" transform="translate(241,34)"/>
<path d="M0 0 C0.99 0.33 1.98 0.66 3 1 C3.33 1.99 3.66 2.98 4 4 C3.34 4 2.68 4 2 4 C1.67 12.58 1.34 21.16 1 30 C0.67 30 0.34 30 0 30 C0 20.1 0 10.2 0 0 Z " fill="#A4D1EB" transform="translate(99,31)"/>
<path d="M0 0 C0 0.33 0 0.66 0 1 C-0.85722656 1.06058594 -1.71445313 1.12117188 -2.59765625 1.18359375 C-8.43951886 1.61168966 -14.21258151 2.0997349 -20 3 C-20.66 3 -21.32 3 -22 3 C-22 2.34 -22 1.68 -22 1 C-14.4675474 -0.69745411 -7.64548431 -1.85345074 0 0 Z " fill="#82BDE1" transform="translate(127,85)"/>
<path d="M0 0 C0.99 0.33 1.98 0.66 3 1 C2.67 5.62 2.34 10.24 2 15 C1.34 15 0.68 15 0 15 C-0.19601608 13.25093341 -0.38147403 11.50068154 -0.5625 9.75 C-0.66691406 8.77546875 -0.77132812 7.8009375 -0.87890625 6.796875 C-0.98974468 4.2368648 -0.77738092 2.41851841 0 0 Z " fill="#388DC8" transform="translate(120,46)"/>
<path d="M0 0 C0 0.66 0 1.32 0 2 C-3.25566779 5.12001497 -7.62822229 7.00951911 -12 8 C-14.25 7.578125 -14.25 7.578125 -16 7 C-13.71070947 5.82845707 -11.41881638 4.66261926 -9.125 3.5 C-8.47402344 3.16613281 -7.82304687 2.83226563 -7.15234375 2.48828125 C-2.2265625 0 -2.2265625 0 0 0 Z " fill="#99CAE6" transform="translate(34,73)"/>
<path d="M0 0 C2 2 2 2 2.23046875 3.875 C2.21628906 4.57625 2.20210938 5.2775 2.1875 6 C2.18105469 6.70125 2.17460938 7.4025 2.16796875 8.125 C2 10 2 10 1 12 C0.34 12 -0.32 12 -1 12 C-1.02687279 10.18757948 -1.04633715 8.37504767 -1.0625 6.5625 C-1.07410156 5.55316406 -1.08570312 4.54382812 -1.09765625 3.50390625 C-1 1 -1 1 0 0 Z " fill="#378ECB" transform="translate(107,38)"/>
<path d="M0 0 C0.66 0.33 1.32 0.66 2 1 C1.34 1.66 0.68 2.32 0 3 C0 4.32 0 5.64 0 7 C-1.65 7.33 -3.3 7.66 -5 8 C-4.45773019 4.20411134 -2.79872437 2.52788007 0 0 Z " fill="#2D8BCF" transform="translate(44,68)"/>
<path d="M0 0 C0.66 0.33 1.32 0.66 2 1 C0.4375 3.4375 0.4375 3.4375 -2 6 C-5.75 6.8125 -5.75 6.8125 -9 7 C-6.3765992 4.08511023 -3.28183606 2.11496102 0 0 Z " fill="#93C6E4" transform="translate(43,66)"/>
<path d="M0 0 C1.60379341 -0.05416188 3.20811406 -0.09286638 4.8125 -0.125 C5.70582031 -0.14820312 6.59914063 -0.17140625 7.51953125 -0.1953125 C10 0 10 0 13 2 C13 2.66 13 3.32 13 4 C8.71 3.01 4.42 2.02 0 1 C0 0.67 0 0.34 0 0 Z " fill="#A3CFE9" transform="translate(299,83)"/>
<path d="M0 0 C0.33 0 0.66 0 1 0 C1 2.97 1 5.94 1 9 C-2 10 -2 10 -4.1875 9.0625 C-4.785625 8.711875 -5.38375 8.36125 -6 8 C-4.35 8 -2.7 8 -1 8 C-1.020625 6.865625 -1.04125 5.73125 -1.0625 4.5625 C-1 1 -1 1 0 0 Z " fill="#87C1E4" transform="translate(261,113)"/>
<path d="M0 0 C0.66 0 1.32 0 2 0 C2 1.32 2 2.64 2 4 C3.32 4 4.64 4 6 4 C6 4.99 6 5.98 6 7 C3.03 6.505 3.03 6.505 0 6 C0 5.34 0 4.68 0 4 C-0.66 3.67 -1.32 3.34 -2 3 C-1.34 2.01 -0.68 1.02 0 0 Z " fill="#3F96D2" transform="translate(326,97)"/>
<path d="M0 0 C5.94 0.99 5.94 0.99 12 2 C12 2.66 12 3.32 12 4 C10.56138706 3.91253716 9.12402492 3.80434652 7.6875 3.6875 C6.88699219 3.62949219 6.08648437 3.57148437 5.26171875 3.51171875 C3 3 3 3 0 0 Z " fill="#83BEE1" transform="translate(300,89)"/>
<path d="M0 0 C3 3 3 3 3.1875 6.6875 C3.125625 7.780625 3.06375 8.87375 3 10 C2.01 9.67 1.02 9.34 0 9 C0 6.03 0 3.06 0 0 Z " fill="#308FCD" transform="translate(134,52)"/>
<path d="M0 0 C4.51617599 -0.07654536 8.59085217 -0.10228696 13 1 C13 1.66 13 2.32 13 3 C8.17639811 3.19294408 4.50353262 2.75747614 0 1 C0 0.67 0 0.34 0 0 Z " fill="#8AC2E2" transform="translate(302,97)"/>
<path d="M0 0 C1.95803507 -0.05389087 3.91648909 -0.09274217 5.875 -0.125 C7.51082031 -0.15980469 7.51082031 -0.15980469 9.1796875 -0.1953125 C12 0 12 0 14 2 C10.59598052 3.13732426 8.22543336 2.83989957 4.75 2.0625 C3.85796875 1.86785156 2.9659375 1.67320313 2.046875 1.47265625 C1.37140625 1.31667969 0.6959375 1.16070312 0 1 C0 0.67 0 0.34 0 0 Z " fill="#89C0E4" transform="translate(246,74)"/>
<path d="M0 0 C0.33 1.32 0.66 2.64 1 4 C-3.625 6.125 -3.625 6.125 -7 5 C-4.69 3.35 -2.38 1.7 0 0 Z " fill="#C3E0EF" transform="translate(47,72)"/>
<path d="M0 0 C1.21236328 0.04060547 1.21236328 0.04060547 2.44921875 0.08203125 C3.06410156 0.11683594 3.67898437 0.15164062 4.3125 0.1875 C0.27957255 2.4219598 -3.13717434 2.73246743 -7.6875 3.1875 C-5.26849268 0.20484049 -3.789448 -0.16475861 0 0 Z " fill="#8EC4E4" transform="translate(35.6875,84.8125)"/>
<path d="M0 0 C5.53846154 -0.36923077 5.53846154 -0.36923077 7.875 1.5 C8.24625 1.995 8.6175 2.49 9 3 C6.50907189 4.24546405 5.58919267 3.7767578 3 3 C3 2.34 3 1.68 3 1 C2.01 0.67 1.02 0.34 0 0 Z " fill="#74B5DD" transform="translate(293,94)"/>
<path d="" fill="#FFFFFF" transform="translate(0,0)"/>
</svg>
